<svg version="1.1" id="Layer_1" xmlns="http://www.w3.org/2000/svg" xmlns:xlink="http://www.w3.org/1999/xlink" x="0px" y="0px"
	 width="100%" viewBox="0 0 778 390" enable-background="new 0 0 778 390" xml:space="preserve">
<path fill="#121820" opacity="1.000000" stroke="none" 
	d="
M529.000000,391.000000 
	C352.666656,391.000000 176.833328,391.000000 1.000000,391.000000 
	C1.000000,261.000000 1.000000,131.000000 1.000000,1.000000 
	C260.333344,1.000000 519.666687,1.000000 779.000000,1.000000 
	C779.000000,131.000000 779.000000,261.000000 779.000000,391.000000 
	C695.833313,391.000000 612.666687,391.000000 529.000000,391.000000 
M272.771973,215.140930 
	C271.910950,214.752472 271.082794,214.141113 270.184021,214.008423 
	C251.862366,211.303360 233.520248,208.734497 215.210510,205.952240 
	C207.742630,204.817474 200.341476,203.243744 192.565140,201.185410 
	C188.361572,176.591354 184.158005,151.997299 179.954437,127.403244 
	C179.599197,127.446312 179.243973,127.489372 178.888748,127.532440 
	C178.888748,130.680786 178.888748,133.829147 178.198318,137.204529 
	C176.471039,144.737183 174.549927,152.231934 173.068359,159.812622 
	C171.430359,168.193893 170.155563,176.647461 168.794113,185.081100 
	C167.139603,195.330124 165.559784,205.591187 163.883774,216.705780 
	C162.737457,225.196838 172.563812,233.475891 183.120010,231.769073 
	C203.940735,228.402557 224.788818,225.204376 245.632401,221.980637 
	C257.261566,220.182037 268.904419,218.471970 280.541077,216.722000 
	C280.518921,216.425079 280.496735,216.128174 280.474579,215.831268 
	C277.992889,215.831268 275.511230,215.831268 272.771973,215.140930 
M173.727890,40.384033 
	C169.457382,35.263313 165.186874,30.142597 161.012680,24.243862 
	C160.697891,23.021261 160.724945,21.530640 160.011459,20.620640 
	C156.113708,15.649367 152.152161,10.714502 147.931122,6.020153 
	C146.913727,4.888663 144.796295,4.110463 143.241440,4.196369 
	C127.575287,5.061924 116.304321,13.775613 110.800011,28.626005 
	C109.392624,32.423088 109.888641,35.473995 112.843216,38.537975 
	C121.233208,47.238663 129.480469,56.084484 137.558395,65.075760 
	C142.386734,70.449997 146.791672,76.204636 151.694031,82.161453 
	C149.331909,83.031960 147.673676,83.643074 146.015427,84.254181 
	C147.228455,85.954346 148.687592,86.473892 150.146881,86.992989 
	C151.473618,87.464935 153.207962,87.556076 154.061020,88.469978 
	C159.469757,94.264519 164.917557,100.051964 169.894394,106.211853 
	C174.636429,112.081169 180.612915,114.444977 187.524826,112.325378 
	C193.228104,110.576416 198.467331,107.314331 204.666885,105.006737 
	C205.964584,105.306755 207.259323,105.620224 208.560394,105.904846 
	C269.174377,119.164856 313.163666,167.884827 320.254089,229.613525 
	C328.202698,298.813354 282.181763,365.138977 214.545135,381.982422 
	C213.112396,382.339172 211.721436,382.863617 210.310974,383.309845 
	C212.659470,384.138794 214.852875,384.278320 216.796814,383.648193 
	C230.834915,379.097717 245.530533,375.856812 258.707825,369.489838 
	C328.711975,335.665375 367.117035,261.877258 352.786957,185.079041 
	C339.882965,115.923470 297.619598,71.280975 230.725067,50.015785 
	C212.949921,44.365215 194.463181,43.350555 175.570389,42.706692 
	C175.015656,42.147846 174.460907,41.589001 173.727890,40.384033 
M579.862183,231.657028 
	C580.324341,231.846573 580.786743,232.035309 581.248535,232.225739 
	C619.177185,247.866791 661.002258,222.417084 662.587158,182.732727 
	C663.720032,154.367096 643.530273,129.000702 615.852966,124.015945 
	C586.588989,118.745445 558.263367,135.016113 549.293762,162.248413 
	C540.299377,189.556351 552.731018,218.248444 579.862183,231.657028 
M679.310425,125.646019 
	C679.012695,127.217316 678.457397,128.788239 678.455078,130.359970 
	C678.406555,163.513718 678.416626,196.667542 678.434082,229.821365 
	C678.434814,231.266068 678.614502,232.710678 678.710449,234.150070 
	C687.599060,234.150070 696.121277,234.150070 704.826233,234.150070 
	C704.826233,216.719131 704.622070,199.729248 704.925232,182.748428 
	C705.049072,175.811966 705.452332,168.682007 707.185913,162.019287 
	C709.787170,152.021210 719.847473,146.203033 730.465515,147.265945 
	C740.608887,148.281342 746.416382,154.107239 747.930908,165.196182 
	C748.559753,169.800797 748.910339,174.476822 748.942688,179.123474 
	C749.059998,195.949478 748.981689,212.776794 749.000000,229.603607 
	C749.001709,231.184204 749.164246,232.764633 749.251282,234.329407 
	C758.155945,234.329407 766.584229,234.329407 774.894531,234.329407 
	C775.168030,233.792572 775.445312,233.503540 775.442871,233.216904 
	C775.231567,208.577591 775.545715,183.916672 774.565613,159.307358 
	C773.961731,144.145630 766.704163,131.963287 751.829468,126.423744 
	C735.179626,120.223114 719.148499,121.188835 705.110107,133.590759 
	C704.564148,134.073044 703.883240,134.402573 702.575928,135.250259 
	C702.575928,131.576889 702.575928,128.670578 702.575928,125.450523 
	C694.793335,125.450523 687.485291,125.450523 679.310425,125.646019 
M455.518707,208.427460 
	C452.228058,208.427460 448.937408,208.427460 445.011902,208.427460 
	C445.011902,168.411224 445.011902,128.899933 445.011902,89.535553 
	C435.634583,89.535553 426.902588,89.535553 418.244720,89.535553 
	C418.244720,137.995132 418.244720,186.086609 418.244720,234.193237 
	C442.199921,234.193237 465.905212,234.193237 489.611938,234.193237 
	C489.611938,225.522293 489.611938,217.247986 489.611938,208.427032 
	C478.423828,208.427032 467.469482,208.427032 455.518707,208.427460 
M507.808624,234.589081 
	C515.240051,234.589081 522.671509,234.589081 530.272339,234.589081 
	C530.272339,197.959824 530.272339,161.935898 530.272339,125.695412 
	C521.401306,125.695412 512.837891,125.695412 503.991119,125.695412 
	C503.991119,147.122314 503.990997,168.247543 503.991180,189.372787 
	C503.991272,203.188950 504.002411,217.005127 503.980621,230.821259 
	C503.977386,232.876846 503.688934,235.032455 507.808624,234.589081 
M634.693420,267.794861 
	C628.255432,267.794861 621.817505,267.794861 615.152710,267.794861 
	C615.152710,285.788971 615.152710,303.647430 615.152710,321.921906 
	C617.203552,321.751007 618.752747,321.621918 620.671021,321.462036 
	C620.671021,313.020050 620.671021,305.044281 620.671021,297.068542 
	C620.671021,289.141937 620.671021,281.215332 620.671021,272.581238 
	C626.754211,272.940552 632.103943,272.788666 637.273254,273.681580 
	C643.585571,274.771942 646.559265,279.220245 646.246216,285.549255 
	C645.952942,291.478943 642.473389,295.363190 636.405640,296.274750 
	C633.170044,296.760834 629.891357,296.960510 625.933777,297.359955 
	C631.300964,304.499817 636.595703,311.085632 641.342285,318.045258 
	C643.818298,321.675690 646.593811,322.596130 651.178650,321.290833 
	C648.642517,317.886597 646.294861,314.732880 643.944519,311.581116 
	C641.605713,308.444824 639.264160,305.310547 636.596375,301.736725 
	C644.590820,300.060577 650.527588,296.839996 651.919739,288.719940 
	C653.901123,277.163666 647.871826,269.540497 634.693420,267.794861 
M443.930786,267.338959 
	C442.767700,268.559906 441.156799,269.581726 440.511505,271.032959 
	C434.764374,283.957458 429.186554,296.957245 423.561890,309.936157 
	C421.941528,313.675079 420.330994,317.418274 418.642120,321.330505 
	C424.392334,322.085358 424.398804,322.088318 426.411652,317.696014 
	C427.243622,315.880646 428.364380,314.122620 428.796722,312.212433 
	C430.458466,304.870361 435.104156,303.932831 442.110077,303.300079 
	C454.044830,302.222137 461.424652,305.498016 463.968964,317.615967 
	C464.898407,322.042816 467.725128,322.775604 471.950806,321.173950 
	C464.409607,303.879059 457.033630,286.778595 449.387115,269.799927 
	C448.816559,268.533020 446.308563,268.138641 443.930786,267.338959 
M679.314941,317.300079 
	C669.490845,316.886078 663.210327,311.638397 663.572693,303.548035 
	C675.273743,303.548035 687.012878,303.548035 698.657898,303.548035 
	C700.154236,291.875183 692.937317,282.681183 681.394043,280.883423 
	C669.662354,279.056335 659.239319,286.310028 657.110352,297.783142 
	C655.005981,309.123932 662.381409,319.331757 673.920776,322.366425 
	C682.318909,324.574951 696.170288,318.408966 697.947449,306.756134 
	C694.840759,308.567963 692.721069,309.796967 690.608337,311.037933 
	C687.123840,313.084656 683.643860,315.139038 679.314941,317.300079 
M578.243896,285.190308 
	C576.680359,284.258820 575.202576,283.120392 573.538757,282.430756 
	C565.134888,278.947144 557.139771,279.977509 550.224915,285.780670 
	C543.821533,291.154602 541.907166,298.428314 543.742798,306.508698 
	C545.760193,315.389160 551.644836,320.385284 560.414062,322.240906 
	C569.525940,324.169067 578.807617,320.207642 583.028381,312.548340 
	C587.988220,303.547882 586.390259,293.459473 578.243896,285.190308 
M530.572510,110.176811 
	C530.572510,103.248924 530.572510,96.321037 530.572510,89.513062 
	C521.298584,89.513062 512.739929,89.513062 504.233643,89.513062 
	C504.233643,97.788261 504.233643,105.707108 504.233643,114.007568 
	C512.245361,114.007568 520.021667,114.106850 527.788330,113.879654 
	C528.740051,113.851822 529.640747,112.075623 530.572510,110.176811 
M742.868896,306.516052 
	C742.816772,303.191345 743.008972,299.841248 742.666565,296.546722 
	C741.651794,286.783112 735.890747,280.825531 726.138062,280.675781 
	C721.777771,280.608856 717.383301,282.769409 713.591553,283.764893 
	C711.801514,282.975098 710.055603,282.204803 708.309753,281.434540 
	C707.643433,283.060669 706.427185,284.677765 706.400330,286.314362 
	C706.230713,296.622375 706.512207,306.939484 706.248718,317.243469 
	C706.128296,321.952942 707.973511,322.673279 712.773438,321.069702 
	C712.773438,312.774780 712.666443,304.330170 712.818604,295.890228 
	C712.894897,291.656952 715.347900,288.829895 719.149963,287.101959 
	C728.077698,283.044617 736.574829,288.625763 736.912170,299.021484 
	C737.153320,306.452942 736.958984,313.898560 736.958984,321.817169 
	C739.226624,321.707916 740.902954,321.627167 742.869202,321.532440 
	C742.869202,316.457703 742.869202,311.982422 742.868896,306.516052 
M512.209595,292.526062 
	C512.209595,288.926453 512.209595,285.326813 512.209595,281.940155 
	C507.578430,280.509613 506.123138,281.896301 506.240143,286.025391 
	C506.428467,292.669128 506.417358,299.338898 506.043823,305.972534 
	C505.649170,312.980804 500.801361,317.264099 493.962402,317.273682 
	C487.023682,317.283417 482.965515,313.617310 482.179138,306.393127 
	C481.910431,303.924866 482.040710,301.410461 482.033630,298.917023 
	C482.017273,293.166534 482.028412,287.415955 482.028412,281.289917 
	C479.688721,281.444519 478.115570,281.548462 476.128998,281.679749 
	C476.128998,289.039124 476.115112,295.993134 476.139099,302.946960 
	C476.144806,304.606079 476.138885,306.284454 476.373230,307.920349 
	C477.800568,317.882965 485.374359,324.012878 495.255859,322.618195 
	C498.862823,322.109100 502.262024,320.128021 504.814819,319.171234 
	C507.032806,320.348938 509.015198,321.401520 512.209778,323.097748 
	C512.209778,312.057037 512.209778,302.787018 512.209595,292.526062 
M770.850708,286.672424 
	C771.211914,285.089966 771.573120,283.507507 772.014465,281.573914 
	C768.451843,281.350159 765.732788,281.179413 762.476379,280.974884 
	C762.476379,276.146667 762.476379,271.913879 762.476379,267.334137 
	C760.295654,267.429871 758.719727,267.499023 756.658020,267.589508 
	C756.658020,271.468384 756.964539,274.971375 756.588501,278.399445 
	C755.976074,283.981689 750.505432,279.562256 748.023560,282.420380 
	C748.083557,283.549561 748.159180,284.972015 748.247620,286.636536 
	C751.139465,286.829712 753.729675,287.002747 756.807495,287.208344 
	C756.807495,298.881958 756.807495,310.145477 756.807495,321.591248 
	C758.919556,321.591248 760.508911,321.591248 762.828735,321.591248 
	C762.828735,309.953674 762.828735,298.574280 762.828735,286.848846 
	C765.704224,286.848846 767.850525,286.848846 770.850708,286.672424 
M518.285156,286.635712 
	C520.725586,286.808838 523.166016,286.981964 526.236206,287.199799 
	C526.236206,298.790283 526.236206,310.147064 526.236206,321.859253 
	C528.480408,321.751221 530.049805,321.675690 532.209717,321.571747 
	C532.209717,309.813782 532.209717,298.458801 532.209717,287.060699 
	C535.436035,286.914764 538.053345,286.796356 540.933655,286.666077 
	C540.933655,284.886108 540.933655,283.336182 540.933655,281.578522 
	C537.876160,281.379486 535.145874,281.201782 531.987732,280.996185 
	C531.987732,276.370087 531.987732,272.114014 531.987732,267.800354 
	C529.823730,267.800354 528.130798,267.800354 525.914490,267.800354 
	C525.914490,272.479065 525.914490,276.728424 525.914490,280.147003 
	C523.099731,283.088837 515.955078,277.885956 518.285156,286.635712 
M8.506069,213.631989 
	C7.463861,215.046951 6.421653,216.461914 5.379449,217.876877 
	C6.857032,218.902451 8.305013,220.761307 9.817120,220.815018 
	C18.099514,221.109238 26.397724,220.940750 34.690315,220.975525 
	C37.397446,220.986877 39.878502,220.597717 39.963310,217.224869 
	C40.054314,213.605316 37.297401,213.577621 34.725788,213.572128 
	C26.267454,213.554062 17.809057,213.565353 8.506069,213.631989 
M74.428711,305.485931 
	C73.487183,305.704773 72.242622,305.612854 71.650536,306.190125 
	C64.991226,312.682831 58.340679,319.191986 51.959381,325.953125 
	C51.140190,326.821045 51.859974,329.141541 51.866829,330.789124 
	C53.664879,330.724243 56.151279,331.400696 57.149200,330.474091 
	C63.600147,324.484161 69.815384,318.229767 75.906441,311.869141 
	C77.806099,309.885376 78.230438,307.418060 74.428711,305.485931 
M70.961617,117.559364 
	C66.506416,113.092514 62.210499,108.444519 57.482990,104.287331 
	C56.314251,103.259575 53.743870,103.825760 51.817802,103.659233 
	C51.815853,105.322617 51.096786,107.662750 51.926163,108.541618 
	C58.189419,115.178627 64.669212,121.622276 71.333900,127.856339 
	C72.222702,128.687714 74.529755,128.002869 76.180008,128.020187 
	C76.126144,126.235664 76.621941,124.165810 75.880791,122.738060 
	C74.931313,120.908966 72.986099,119.596748 70.961617,117.559364 
z"/>
<path fill="#C3C3C3" opacity="1.000000" stroke="none" 
	d="
M175.935471,43.181595 
	C194.463181,43.350555 212.949921,44.365215 230.725067,50.015785 
	C297.619598,71.280975 339.882965,115.923470 352.786957,185.079041 
	C367.117035,261.877258 328.711975,335.665375 258.707825,369.489838 
	C245.530533,375.856812 230.834915,379.097717 216.796814,383.648193 
	C214.852875,384.278320 212.659470,384.138794 210.310974,383.309845 
	C211.721436,382.863617 213.112396,382.339172 214.545135,381.982422 
	C282.181763,365.138977 328.202698,298.813354 320.254089,229.613525 
	C313.163666,167.884827 269.174377,119.164856 208.560394,105.904846 
	C207.259323,105.620224 205.964584,105.306755 204.324020,104.518433 
	C204.925690,102.283875 205.831863,100.515533 206.821640,98.795303 
	C210.346786,92.668694 211.616882,86.283058 207.818298,79.941826 
	C205.132172,75.457680 201.656830,71.453865 198.695206,67.125191 
	C195.238205,62.072498 188.730988,58.578281 190.206680,50.907089 
	C190.240753,50.729996 189.468277,50.397743 188.903854,50.027588 
	C187.634293,51.043484 186.392334,52.037289 184.851120,53.270557 
	C181.763245,49.776306 178.849350,46.478951 175.935471,43.181595 
z"/>
<path fill="#FCFCFC" opacity="1.000000" stroke="none" 
	d="
M579.534119,231.471222 
	C552.731018,218.248444 540.299377,189.556351 549.293762,162.248413 
	C558.263367,135.016113 586.588989,118.745445 615.852966,124.015945 
	C643.530273,129.000702 663.720032,154.367096 662.587158,182.732727 
	C661.002258,222.417084 619.177185,247.866791 581.248535,232.225739 
	C580.786743,232.035309 580.324341,231.846573 579.534119,231.471222 
M632.137695,164.514343 
	C624.571228,151.153458 611.171753,144.769470 597.465759,147.995514 
	C583.838135,151.203110 573.628479,164.189468 573.042114,179.061752 
	C572.534363,191.936691 580.392273,204.838501 591.925537,210.066513 
	C603.585327,215.351898 616.785339,212.944153 626.038635,203.844177 
	C636.245117,193.806808 638.635132,179.499786 632.137695,164.514343 
z"/>
<path fill="#FAFAFA" opacity="1.000000" stroke="none" 
	d="
M679.743835,125.548271 
	C687.485291,125.450523 694.793335,125.450523 702.575928,125.450523 
	C702.575928,128.670578 702.575928,131.576889 702.575928,135.250259 
	C703.883240,134.402573 704.564148,134.073044 705.110107,133.590759 
	C719.148499,121.188835 735.179626,120.223114 751.829468,126.423744 
	C766.704163,131.963287 773.961731,144.145630 774.565613,159.307358 
	C775.545715,183.916672 775.231567,208.577591 775.442871,233.216904 
	C775.445312,233.503540 775.168030,233.792572 774.894531,234.329407 
	C766.584229,234.329407 758.155945,234.329407 749.251282,234.329407 
	C749.164246,232.764633 749.001709,231.184204 749.000000,229.603607 
	C748.981689,212.776794 749.059998,195.949478 748.942688,179.123474 
	C748.910339,174.476822 748.559753,169.800797 747.930908,165.196182 
	C746.416382,154.107239 740.608887,148.281342 730.465515,147.265945 
	C719.847473,146.203033 709.787170,152.021210 707.185913,162.019287 
	C705.452332,168.682007 705.049072,175.811966 704.925232,182.748428 
	C704.622070,199.729248 704.826233,216.719131 704.826233,234.150070 
	C696.121277,234.150070 687.599060,234.150070 678.710449,234.150070 
	C678.614502,232.710678 678.434814,231.266068 678.434082,229.821365 
	C678.416626,196.667542 678.406555,163.513718 678.455078,130.359970 
	C678.457397,128.788239 679.012695,127.217316 679.743835,125.548271 
z"/>
<path fill="#FCFCFC" opacity="1.000000" stroke="none" 
	d="
M456.016907,208.427246 
	C467.469482,208.427032 478.423828,208.427032 489.611938,208.427032 
	C489.611938,217.247986 489.611938,225.522293 489.611938,234.193237 
	C465.905212,234.193237 442.199921,234.193237 418.244720,234.193237 
	C418.244720,186.086609 418.244720,137.995132 418.244720,89.535553 
	C426.902588,89.535553 435.634583,89.535553 445.011902,89.535553 
	C445.011902,128.899933 445.011902,168.411224 445.011902,208.427460 
	C448.937408,208.427460 452.228058,208.427460 456.016907,208.427246 
z"/>
<path fill="#F9F9F9" opacity="1.000000" stroke="none" 
	d="
M507.340393,234.588837 
	C503.688934,235.032455 503.977386,232.876846 503.980621,230.821259 
	C504.002411,217.005127 503.991272,203.188950 503.991180,189.372787 
	C503.990997,168.247543 503.991119,147.122314 503.991119,125.695412 
	C512.837891,125.695412 521.401306,125.695412 530.272339,125.695412 
	C530.272339,161.935898 530.272339,197.959824 530.272339,234.589081 
	C522.671509,234.589081 515.240051,234.589081 507.340393,234.588837 
z"/>
<path fill="#FAFAFA" opacity="1.000000" stroke="none" 
	d="
M175.752930,42.944145 
	C178.849350,46.478951 181.763245,49.776306 184.851120,53.270557 
	C186.392334,52.037289 187.634293,51.043484 188.903854,50.027588 
	C189.468277,50.397743 190.240753,50.729996 190.206680,50.907089 
	C188.730988,58.578281 195.238205,62.072498 198.695206,67.125191 
	C201.656830,71.453865 205.132172,75.457680 207.818298,79.941826 
	C211.616882,86.283058 210.346786,92.668694 206.821640,98.795303 
	C205.831863,100.515533 204.925690,102.283875 203.946686,104.376450 
	C198.467331,107.314331 193.228104,110.576416 187.524826,112.325378 
	C180.612915,114.444977 174.636429,112.081169 169.894394,106.211853 
	C164.917557,100.051964 159.469757,94.264519 154.061020,88.469978 
	C153.207962,87.556076 151.473618,87.464935 150.146881,86.992989 
	C148.687592,86.473892 147.228455,85.954346 146.015427,84.254181 
	C147.673676,83.643074 149.331909,83.031960 151.694031,82.161453 
	C146.791672,76.204636 142.386734,70.449997 137.558395,65.075760 
	C129.480469,56.084484 121.233208,47.238663 112.843216,38.537975 
	C109.888641,35.473995 109.392624,32.423088 110.800011,28.626005 
	C116.304321,13.775613 127.575287,5.061924 143.241440,4.196369 
	C144.796295,4.110463 146.913727,4.888663 147.931122,6.020153 
	C152.152161,10.714502 156.113708,15.649367 160.011459,20.620640 
	C160.724945,21.530640 160.697891,23.021261 160.635590,24.628551 
	C159.819855,25.017305 159.381241,25.021372 158.665695,24.871397 
	C157.295258,24.111271 156.201736,23.505188 155.081116,22.683144 
	C154.910690,22.234295 154.767365,22.001406 154.624039,21.768513 
	C154.723892,22.198051 154.823730,22.627590 154.950012,23.408470 
	C155.986847,25.502850 156.997269,27.245884 157.958771,29.293156 
	C156.868607,29.268763 155.569534,29.227291 154.829605,28.563013 
	C151.142807,25.253143 147.742813,21.608572 143.916397,18.479834 
	C142.919128,17.664391 140.318314,17.616014 139.202774,18.351330 
	C134.959564,21.148273 130.968933,24.342607 126.987747,27.518612 
	C123.445427,30.344519 122.879646,33.631088 125.606682,37.498203 
	C129.212616,42.611660 132.625320,47.861370 135.768402,52.994881 
	C132.294098,50.603989 129.172455,48.270721 125.929947,45.729050 
	C125.623589,45.245747 125.379234,45.041168 124.998672,44.795631 
	C124.827545,44.655487 124.733749,44.626621 124.639969,44.597755 
	C124.726898,44.759396 124.813828,44.921040 125.022057,45.292389 
	C125.348656,45.761528 125.605354,45.951500 125.927124,46.428932 
	C129.049576,50.779644 132.044968,54.869537 135.314209,58.727367 
	C136.990128,60.705009 138.786346,60.281406 140.256058,58.062103 
	C142.054123,60.139408 143.557938,62.049500 145.037643,63.980839 
	C145.013519,64.002090 144.970062,64.049477 144.561493,64.042816 
	C142.788422,63.999508 141.423904,63.962856 139.996948,63.817211 
	C139.934509,63.708218 139.582733,63.725052 139.582733,63.725052 
	C139.582733,63.725052 139.944092,64.044731 140.101791,64.343605 
	C144.045898,69.397720 147.832306,74.152962 151.618713,78.908203 
	C151.926605,78.702202 152.234512,78.496201 152.542404,78.290192 
	C152.353439,77.207451 152.164474,76.124702 152.098648,74.832947 
	C152.420685,74.360817 152.667618,74.155487 153.114059,74.330215 
	C154.836411,77.556816 156.285065,80.536446 158.013901,83.343506 
	C159.626221,85.961365 162.207642,86.909691 164.923126,85.405380 
	C173.118195,80.865471 180.934174,75.751091 185.909241,67.482651 
	C186.715439,66.142776 187.142593,63.402775 186.364288,62.499157 
	C183.934906,59.678623 180.843491,57.428337 178.118103,54.723282 
	C178.492493,54.046669 178.757477,53.603764 179.241638,52.918995 
	C178.555237,50.862782 177.702972,49.019264 176.730301,47.241634 
	C175.573441,45.127361 174.313126,43.069687 173.299561,41.002342 
	C173.501480,41.017197 173.906174,41.030155 173.906174,41.030155 
	C174.460907,41.589001 175.015656,42.147846 175.752930,42.944145 
M197.904877,74.765533 
	C197.904877,74.765533 197.586014,74.754845 197.586014,74.754845 
	C197.586014,74.754845 198.001831,74.998367 198.047958,75.585838 
	C198.359177,76.061348 198.670395,76.536858 198.999741,77.794754 
	C200.400986,85.363892 201.802231,92.933029 203.125137,100.078995 
	C204.988586,92.244514 204.546692,84.251389 198.951462,76.400177 
	C198.633820,75.934097 198.316193,75.468018 197.904877,74.765533 
M177.019577,94.417953 
	C177.170761,94.633972 177.321960,94.849991 177.473160,95.066017 
	C177.526184,94.940857 177.659576,94.757652 177.618332,94.700554 
	C177.436737,94.449120 177.204773,94.234062 176.901596,93.484062 
	C176.620529,93.180351 176.339462,92.876640 176.058395,92.572937 
	C175.902237,92.762856 175.746078,92.952782 175.589920,93.142700 
	C176.063400,93.424942 176.536880,93.707191 177.019577,94.417953 
M171.900269,99.741386 
	C171.817688,99.706123 171.735092,99.670860 171.652512,99.635597 
	C171.756073,99.766937 171.859619,99.898277 172.039032,100.561852 
	C172.342896,100.859444 172.646759,101.157043 172.950623,101.454636 
	C173.115356,101.266052 173.280106,101.077469 173.444839,100.888878 
	C172.970261,100.583427 172.495682,100.277985 171.900269,99.741386 
M192.092239,81.230026 
	C192.092239,81.230026 192.403641,81.239609 192.403641,81.239609 
	C192.403641,81.239609 192.000000,81.000000 191.903900,80.316566 
	C189.784805,78.166840 187.665710,76.017113 185.546600,73.867386 
	C185.104935,74.375183 184.663269,74.882973 184.221603,75.390762 
	C186.814407,77.260513 189.407196,79.130257 192.092239,81.230026 
M129.018723,16.479546 
	C125.643715,19.845240 122.155106,23.110054 118.995941,26.667429 
	C118.410965,27.326132 119.155190,29.165245 119.285927,30.459557 
	C120.354179,30.018559 121.599518,29.796947 122.461868,29.100866 
	C127.964401,24.659258 133.415680,20.151915 138.794144,15.561150 
	C139.632629,14.845463 140.012695,13.592681 140.604736,12.588263 
	C139.327896,12.275719 137.789062,11.353971 136.824951,11.768597 
	C134.268280,12.868105 131.959930,14.545046 129.018723,16.479546 
M193.671387,107.974289 
	C194.311844,107.911446 194.952316,107.848602 194.673828,107.875923 
	C188.813644,106.347496 182.187286,104.619232 174.836151,102.701935 
	C180.513840,107.385582 186.473969,108.440285 193.671387,107.974289 
M172.515457,86.420090 
	C172.760559,87.735886 173.005661,89.051682 173.250763,90.367470 
	C173.759964,90.230965 174.269165,90.094467 174.778366,89.957962 
	C174.197250,88.888344 173.616135,87.818733 172.515457,86.420090 
M152.976898,18.795691 
	C152.838242,19.021263 152.699585,19.246836 152.560928,19.472416 
	C152.783844,19.331228 153.006744,19.190041 152.976898,18.795691 
M197.656204,86.127724 
	C197.591263,86.165588 197.526321,86.203445 197.656204,86.127724 
M169.567749,98.509171 
	C169.567749,98.509171 169.482986,98.554131 169.567749,98.509171 
M181.603943,54.503094 
	C181.603943,54.503094 181.485489,54.572510 181.603943,54.503094 
M122.460648,43.484226 
	C122.460648,43.484226 122.532181,43.450035 122.460648,43.484226 
M196.426834,72.494667 
	C196.426834,72.494667 196.516693,72.443787 196.426834,72.494667 
z"/>
<path fill="#2F2F2F" opacity="1.000000" stroke="none" 
	d="
M192.909958,201.869720 
	C200.341476,203.243744 207.742630,204.817474 215.210510,205.952240 
	C233.520248,208.734497 251.862366,211.303360 270.184021,214.008423 
	C271.082794,214.141113 271.910950,214.752472 272.432312,215.544159 
	C243.743134,215.986313 215.393646,216.025238 186.890457,215.740402 
	C185.318512,211.396072 182.350098,209.066299 178.225311,209.154510 
	C174.039520,209.244064 172.597778,212.589417 171.435547,216.157089 
	C168.649796,216.018997 166.298737,215.933029 163.947662,215.847046 
	C165.559784,205.591187 167.139603,195.330124 168.794113,185.081100 
	C170.155563,176.647461 171.430359,168.193893 173.068359,159.812622 
	C174.549927,152.231934 176.471039,144.737183 178.598495,137.559418 
	C179.019745,155.340332 179.045731,172.766357 179.060135,190.192368 
	C179.069519,201.564972 179.536606,202.041733 190.927399,202.033539 
	C191.588287,202.033066 192.249100,201.926773 192.909958,201.869720 
z"/>
<path fill="#656565" opacity="1.000000" stroke="none" 
	d="
M163.915710,216.276413 
	C166.298737,215.933029 168.649796,216.018997 171.454895,216.514679 
	C172.608582,221.027969 175.021820,223.813370 179.154068,223.703598 
	C183.683838,223.583267 186.077927,220.341248 187.044159,216.064148 
	C215.393646,216.025238 243.743134,215.986313 272.561096,215.889343 
	C275.511230,215.831268 277.992889,215.831268 280.474579,215.831268 
	C280.496735,216.128174 280.518921,216.425079 280.541077,216.722000 
	C268.904419,218.471970 257.261566,220.182037 245.632401,221.980637 
	C224.788818,225.204376 203.940735,228.402557 183.120010,231.769073 
	C172.563812,233.475891 162.737457,225.196838 163.915710,216.276413 
z"/>
<path fill="#A0A0A0" opacity="1.000000" stroke="none" 
	d="
M635.126953,267.839844 
	C647.871826,269.540497 653.901123,277.163666 651.919739,288.719940 
	C650.527588,296.839996 644.590820,300.060577 636.596375,301.736725 
	C639.264160,305.310547 641.605713,308.444824 643.944519,311.581116 
	C646.294861,314.732880 648.642517,317.886597 651.178650,321.290833 
	C646.593811,322.596130 643.818298,321.675690 641.342285,318.045258 
	C636.595703,311.085632 631.300964,304.499817 625.933777,297.359955 
	C629.891357,296.960510 633.170044,296.760834 636.405640,296.274750 
	C642.473389,295.363190 645.952942,291.478943 646.246216,285.549255 
	C646.559265,279.220245 643.585571,274.771942 637.273254,273.681580 
	C632.103943,272.788666 626.754211,272.940552 620.671021,272.581238 
	C620.671021,281.215332 620.671021,289.141937 620.671021,297.068542 
	C620.671021,305.044281 620.671021,313.020050 620.671021,321.462036 
	C618.752747,321.621918 617.203552,321.751007 615.152710,321.921906 
	C615.152710,303.647430 615.152710,285.788971 615.152710,267.794861 
	C621.817505,267.794861 628.255432,267.794861 635.126953,267.839844 
z"/>
<path fill="#A0A0A0" opacity="1.000000" stroke="none" 
	d="
M444.316010,267.338806 
	C446.308563,268.138641 448.816559,268.533020 449.387115,269.799927 
	C457.033630,286.778595 464.409607,303.879059 471.950806,321.173950 
	C467.725128,322.775604 464.898407,322.042816 463.968964,317.615967 
	C461.424652,305.498016 454.044830,302.222137 442.110077,303.300079 
	C435.104156,303.932831 430.458466,304.870361 428.796722,312.212433 
	C428.364380,314.122620 427.243622,315.880646 426.411652,317.696014 
	C424.398804,322.088318 424.392334,322.085358 418.642120,321.330505 
	C420.330994,317.418274 421.941528,313.675079 423.561890,309.936157 
	C429.186554,296.957245 434.764374,283.957458 440.511505,271.032959 
	C441.156799,269.581726 442.767700,268.559906 444.316010,267.338806 
M453.040283,292.532318 
	C450.593842,286.787354 448.147400,281.042358 445.283569,274.317261 
	C441.696014,282.636261 438.489746,290.071075 435.120117,297.884735 
	C442.395874,297.884735 448.545471,297.884735 455.161591,297.884735 
	C454.402588,295.972961 453.864594,294.617889 453.040283,292.532318 
z"/>
<path fill="#9E9E9E" opacity="1.000000" stroke="none" 
	d="
M679.738464,317.245148 
	C683.643860,315.139038 687.123840,313.084656 690.608337,311.037933 
	C692.721069,309.796967 694.840759,308.567963 697.947449,306.756134 
	C696.170288,318.408966 682.318909,324.574951 673.920776,322.366425 
	C662.381409,319.331757 655.005981,309.123932 657.110352,297.783142 
	C659.239319,286.310028 669.662354,279.056335 681.394043,280.883423 
	C692.937317,282.681183 700.154236,291.875183 698.657898,303.548035 
	C687.012878,303.548035 675.273743,303.548035 663.572693,303.548035 
	C663.210327,311.638397 669.490845,316.886078 679.738464,317.245148 
M670.629761,298.314362 
	C678.009888,298.314362 685.390015,298.314362 692.997803,298.314362 
	C690.478271,289.843201 684.943420,285.667267 677.450928,285.906982 
	C670.362366,286.133789 665.139160,290.504547 663.260742,298.312469 
	C665.486938,298.312469 667.580933,298.312469 670.629761,298.314362 
z"/>
<path fill="#A1A1A1" opacity="1.000000" stroke="none" 
	d="
M578.508240,285.435120 
	C586.390259,293.459473 587.988220,303.547882 583.028381,312.548340 
	C578.807617,320.207642 569.525940,324.169067 560.414062,322.240906 
	C551.644836,320.385284 545.760193,315.389160 543.742798,306.508698 
	C541.907166,298.428314 543.821533,291.154602 550.224915,285.780670 
	C557.139771,279.977509 565.134888,278.947144 573.538757,282.430756 
	C575.202576,283.120392 576.680359,284.258820 578.508240,285.435120 
M562.788574,285.977173 
	C555.792053,286.973541 551.392334,290.915985 549.602661,297.725128 
	C547.972107,303.928833 549.669617,309.359283 554.319092,313.536041 
	C559.208252,317.928131 565.079529,318.431488 571.080322,316.004791 
	C577.277771,313.498566 580.996643,306.022644 579.712402,299.155396 
	C578.159424,290.850708 572.761169,286.402954 562.788574,285.977173 
z"/>
<path fill="#F9F9F9" opacity="1.000000" stroke="none" 
	d="
M530.568787,110.643234 
	C529.640747,112.075623 528.740051,113.851822 527.788330,113.879654 
	C520.021667,114.106850 512.245361,114.007568 504.233643,114.007568 
	C504.233643,105.707108 504.233643,97.788261 504.233643,89.513062 
	C512.739929,89.513062 521.298584,89.513062 530.572510,89.513062 
	C530.572510,96.321037 530.572510,103.248924 530.568787,110.643234 
z"/>
<path fill="#A0A0A0" opacity="1.000000" stroke="none" 
	d="
M742.869019,307.011597 
	C742.869202,311.982422 742.869202,316.457703 742.869202,321.532440 
	C740.902954,321.627167 739.226624,321.707916 736.958984,321.817169 
	C736.958984,313.898560 737.153320,306.452942 736.912170,299.021484 
	C736.574829,288.625763 728.077698,283.044617 719.149963,287.101959 
	C715.347900,288.829895 712.894897,291.656952 712.818604,295.890228 
	C712.666443,304.330170 712.773438,312.774780 712.773438,321.069702 
	C707.973511,322.673279 706.128296,321.952942 706.248718,317.243469 
	C706.512207,306.939484 706.230713,296.622375 706.400330,286.314362 
	C706.427185,284.677765 707.643433,283.060669 708.309753,281.434540 
	C710.055603,282.204803 711.801514,282.975098 713.591553,283.764893 
	C717.383301,282.769409 721.777771,280.608856 726.138062,280.675781 
	C735.890747,280.825531 741.651794,286.783112 742.666565,296.546722 
	C743.008972,299.841248 742.816772,303.191345 742.869019,307.011597 
z"/>
<path fill="#A0A0A0" opacity="1.000000" stroke="none" 
	d="
M512.209717,293.021515 
	C512.209778,302.787018 512.209778,312.057037 512.209778,323.097748 
	C509.015198,321.401520 507.032806,320.348938 504.814819,319.171234 
	C502.262024,320.128021 498.862823,322.109100 495.255859,322.618195 
	C485.374359,324.012878 477.800568,317.882965 476.373230,307.920349 
	C476.138885,306.284454 476.144806,304.606079 476.139099,302.946960 
	C476.115112,295.993134 476.128998,289.039124 476.128998,281.679749 
	C478.115570,281.548462 479.688721,281.444519 482.028412,281.289917 
	C482.028412,287.415955 482.017273,293.166534 482.033630,298.917023 
	C482.040710,301.410461 481.910431,303.924866 482.179138,306.393127 
	C482.965515,313.617310 487.023682,317.283417 493.962402,317.273682 
	C500.801361,317.264099 505.649170,312.980804 506.043823,305.972534 
	C506.417358,299.338898 506.428467,292.669128 506.240143,286.025391 
	C506.123138,281.896301 507.578430,280.509613 512.209595,281.940155 
	C512.209595,285.326813 512.209595,288.926453 512.209717,293.021515 
z"/>
<path fill="#626262" opacity="1.000000" stroke="none" 
	d="
M192.737549,201.527557 
	C192.249100,201.926773 191.588287,202.033066 190.927399,202.033539 
	C179.536606,202.041733 179.069519,201.564972 179.060135,190.192368 
	C179.045731,172.766357 179.019745,155.340332 178.943710,137.445908 
	C178.888748,133.829147 178.888748,130.680786 178.888748,127.532440 
	C179.243973,127.489372 179.599197,127.446312 179.954437,127.403244 
	C184.158005,151.997299 188.361572,176.591354 192.737549,201.527557 
z"/>
<path fill="#9C9C9C" opacity="1.000000" stroke="none" 
	d="
M770.423767,286.760620 
	C767.850525,286.848846 765.704224,286.848846 762.828735,286.848846 
	C762.828735,298.574280 762.828735,309.953674 762.828735,321.591248 
	C760.508911,321.591248 758.919556,321.591248 756.807495,321.591248 
	C756.807495,310.145477 756.807495,298.881958 756.807495,287.208344 
	C753.729675,287.002747 751.139465,286.829712 748.247620,286.636536 
	C748.159180,284.972015 748.083557,283.549561 748.023560,282.420380 
	C750.505432,279.562256 755.976074,283.981689 756.588501,278.399445 
	C756.964539,274.971375 756.658020,271.468384 756.658020,267.589508 
	C758.719727,267.499023 760.295654,267.429871 762.476379,267.334137 
	C762.476379,271.913879 762.476379,276.146667 762.476379,280.974884 
	C765.732788,281.179413 768.451843,281.350159 772.014465,281.573914 
	C771.573120,283.507507 771.211914,285.089966 770.423767,286.760620 
z"/>
<path fill="#A0A0A0" opacity="1.000000" stroke="none" 
	d="
M517.984314,286.352600 
	C515.955078,277.885956 523.099731,283.088837 525.914490,280.147003 
	C525.914490,276.728424 525.914490,272.479065 525.914490,267.800354 
	C528.130798,267.800354 529.823730,267.800354 531.987732,267.800354 
	C531.987732,272.114014 531.987732,276.370087 531.987732,280.996185 
	C535.145874,281.201782 537.876160,281.379486 540.933655,281.578522 
	C540.933655,283.336182 540.933655,284.886108 540.933655,286.666077 
	C538.053345,286.796356 535.436035,286.914764 532.209717,287.060699 
	C532.209717,298.458801 532.209717,309.813782 532.209717,321.571747 
	C530.049805,321.675690 528.480408,321.751221 526.236206,321.859253 
	C526.236206,310.147064 526.236206,298.790283 526.236206,287.199799 
	C523.166016,286.981964 520.725586,286.808838 517.984314,286.352600 
z"/>
<path fill="#C3C3C3" opacity="1.000000" stroke="none" 
	d="
M8.928376,213.598663 
	C17.809057,213.565353 26.267454,213.554062 34.725788,213.572128 
	C37.297401,213.577621 40.054314,213.605316 39.963310,217.224869 
	C39.878502,220.597717 37.397446,220.986877 34.690315,220.975525 
	C26.397724,220.940750 18.099514,221.109238 9.817120,220.815018 
	C8.305013,220.761307 6.857032,218.902451 5.379447,217.876877 
	C6.421653,216.461914 7.463861,215.046951 8.928376,213.598663 
z"/>
<path fill="#C0C0C0" opacity="1.000000" stroke="none" 
	d="
M74.781906,305.608276 
	C78.230438,307.418060 77.806099,309.885376 75.906441,311.869141 
	C69.815384,318.229767 63.600147,324.484161 57.149200,330.474091 
	C56.151279,331.400696 53.664879,330.724243 51.866829,330.789124 
	C51.859974,329.141541 51.140190,326.821045 51.959381,325.953125 
	C58.340679,319.191986 64.991226,312.682831 71.650536,306.190125 
	C72.242622,305.612854 73.487183,305.704773 74.781906,305.608276 
z"/>
<path fill="#C0C0C0" opacity="1.000000" stroke="none" 
	d="
M71.215775,117.810593 
	C72.986099,119.596748 74.931313,120.908966 75.880791,122.738060 
	C76.621941,124.165810 76.126144,126.235664 76.180008,128.020172 
	C74.529755,128.002869 72.222702,128.687714 71.333900,127.856339 
	C64.669212,121.622276 58.189419,115.178627 51.926163,108.541618 
	C51.096786,107.662750 51.815853,105.322617 51.817802,103.659233 
	C53.743870,103.825760 56.314251,103.259575 57.482990,104.287331 
	C62.210499,108.444519 66.506416,113.092514 71.215775,117.810593 
z"/>
<path fill="#F5F5F5" opacity="1.000000" stroke="none" 
	d="
M173.817032,40.707092 
	C173.906174,41.030155 173.501480,41.017197 172.963867,40.982887 
	C171.380493,40.360039 170.334763,39.771496 168.552368,38.768364 
	C169.578400,46.025997 174.382568,49.534882 179.022476,53.160858 
	C178.757477,53.603764 178.492493,54.046669 177.806244,54.560745 
	C175.466156,54.398884 172.885559,53.254356 171.739822,54.086174 
	C165.907745,58.320362 160.470901,63.095757 154.844223,67.617653 
	C152.679398,69.357414 151.751068,71.335487 152.962631,74.007942 
	C152.667618,74.155487 152.420685,74.360817 151.813187,74.649628 
	C149.259735,71.133369 147.114899,67.591423 144.970062,64.049477 
	C144.970062,64.049477 145.013519,64.002090 145.365479,64.034515 
	C148.041748,65.534317 150.262314,67.596970 153.201645,65.254379 
	C158.106735,61.345097 163.075958,57.514000 167.913132,53.522678 
	C170.484161,51.401222 170.647797,48.884285 168.732529,46.048409 
	C166.991608,43.470688 165.555115,40.687382 164.316879,37.948524 
	C169.476486,34.315643 163.937943,33.210457 162.848663,30.723125 
	C161.480179,29.268476 160.261047,28.095081 159.029984,26.605629 
	C158.992905,25.868195 158.967758,25.446815 158.942612,25.025438 
	C159.381241,25.021372 159.819855,25.017305 160.587433,25.017559 
	C165.186874,30.142597 169.457382,35.263313 173.817032,40.707092 
z"/>
<path fill="#121820" opacity="1.000000" stroke="none" 
	d="
M632.317322,164.848969 
	C638.635132,179.499786 636.245117,193.806808 626.038635,203.844177 
	C616.785339,212.944153 603.585327,215.351898 591.925537,210.066513 
	C580.392273,204.838501 572.534363,191.936691 573.042114,179.061752 
	C573.628479,164.189468 583.838135,151.203110 597.465759,147.995514 
	C611.171753,144.769470 624.571228,151.153458 632.317322,164.848969 
z"/>
<path fill="#D9D9D9" opacity="1.000000" stroke="none" 
	d="
M163.984406,37.994709 
	C165.555115,40.687382 166.991608,43.470688 168.732529,46.048409 
	C170.647797,48.884285 170.484161,51.401222 167.913132,53.522678 
	C163.075958,57.514000 158.106735,61.345097 153.201645,65.254379 
	C150.262314,67.596970 148.041748,65.534317 145.389618,64.013268 
	C143.557938,62.049500 142.054123,60.139408 140.127319,57.822227 
	C139.149628,56.948502 138.594940,56.481865 137.997635,55.710140 
	C137.630371,54.893814 137.305725,54.382576 136.871002,53.701080 
	C136.587524,53.318031 136.374237,53.158596 136.121094,53.052513 
	C132.625320,47.861370 129.212616,42.611660 125.606682,37.498203 
	C122.879646,33.631088 123.445427,30.344519 126.987747,27.518612 
	C130.968933,24.342607 134.959564,21.148273 139.202774,18.351330 
	C140.318314,17.616014 142.919128,17.664391 143.916397,18.479834 
	C147.742813,21.608572 151.142807,25.253143 154.829605,28.563013 
	C155.569534,29.227291 156.868607,29.268763 158.078827,29.031456 
	C158.512482,27.950907 158.777206,27.436296 159.041916,26.921684 
	C160.261047,28.095081 161.480179,29.268476 162.805496,31.057903 
	C162.604889,32.752609 162.298096,33.831287 161.776733,35.124535 
	C162.378143,36.232300 163.194107,37.125500 164.006668,38.010025 
	C164.003250,38.001347 163.984406,37.994709 163.984406,37.994709 
z"/>
<path fill="#D9D9D9" opacity="1.000000" stroke="none" 
	d="
M153.114059,74.330215 
	C151.751068,71.335487 152.679398,69.357414 154.844223,67.617653 
	C160.470901,63.095757 165.907745,58.320362 171.739822,54.086174 
	C172.885559,53.254356 175.466156,54.398884 177.696854,54.794449 
	C180.843491,57.428337 183.934906,59.678623 186.364288,62.499157 
	C187.142593,63.402775 186.715439,66.142776 185.909241,67.482651 
	C180.934174,75.751091 173.118195,80.865471 164.923126,85.405380 
	C162.207642,86.909691 159.626221,85.961365 158.013901,83.343506 
	C156.285065,80.536446 154.836411,77.556816 153.114059,74.330215 
z"/>
<path fill="#DBDBDB" opacity="1.000000" stroke="none" 
	d="
M129.285767,16.235899 
	C131.959930,14.545046 134.268280,12.868105 136.824951,11.768597 
	C137.789062,11.353971 139.327896,12.275719 140.604736,12.588263 
	C140.012695,13.592681 139.632629,14.845463 138.794144,15.561150 
	C133.415680,20.151915 127.964401,24.659258 122.461868,29.100866 
	C121.599518,29.796947 120.354179,30.018559 119.285927,30.459555 
	C119.155190,29.165245 118.410965,27.326132 118.995941,26.667429 
	C122.155106,23.110054 125.643715,19.845240 129.285767,16.235899 
z"/>
<path fill="#DBDBDB" opacity="1.000000" stroke="none" 
	d="
M135.768402,52.994881 
	C136.374237,53.158596 136.587524,53.318031 136.899002,54.017746 
	C137.371460,55.008190 137.705841,55.511711 138.040237,56.015228 
	C138.594940,56.481865 139.149628,56.948502 139.833069,57.655014 
	C138.786346,60.281406 136.990128,60.705009 135.314209,58.727367 
	C132.044968,54.869537 129.049576,50.779644 125.962929,46.396782 
	C125.985069,46.007721 126.050835,45.937454 126.050835,45.937454 
	C129.172455,48.270721 132.294098,50.603989 135.768402,52.994881 
z"/>
<path fill="#DBDBDB" opacity="1.000000" stroke="none" 
	d="
M144.561493,64.042816 
	C147.114899,67.591423 149.259735,71.133369 151.690033,74.858643 
	C152.164474,76.124702 152.353439,77.207451 152.542404,78.290192 
	C152.234512,78.496201 151.926605,78.702202 151.618713,78.908203 
	C147.832306,74.152962 144.045898,69.397720 140.132065,64.315384 
	C140.004639,63.988293 140.059402,63.926205 140.059402,63.926205 
	C141.423904,63.962856 142.788422,63.999508 144.561493,64.042816 
z"/>
<path fill="#DBDBDB" opacity="1.000000" stroke="none" 
	d="
M179.241638,52.918995 
	C174.382568,49.534882 169.578400,46.025997 168.552368,38.768364 
	C170.334763,39.771496 171.380493,40.360039 172.761948,40.968033 
	C174.313126,43.069687 175.573441,45.127361 176.730301,47.241634 
	C177.702972,49.019264 178.555237,50.862782 179.241638,52.918995 
z"/>
<path fill="#DBDBDB" opacity="1.000000" stroke="none" 
	d="
M199.019791,76.979767 
	C204.546692,84.251389 204.988586,92.244514 203.125137,100.078995 
	C201.802231,92.933029 200.400986,85.363892 199.000763,77.396378 
	C199.001770,76.997993 199.019791,76.979767 199.019791,76.979767 
z"/>
<path fill="#DBDBDB" opacity="1.000000" stroke="none" 
	d="
M193.276825,107.977448 
	C186.473969,108.440285 180.513840,107.385582 174.836151,102.701935 
	C182.187286,104.619232 188.813644,106.347496 194.673828,107.875923 
	C194.952316,107.848602 194.311844,107.911446 193.276825,107.977448 
z"/>
<path fill="#DBDBDB" opacity="1.000000" stroke="none" 
	d="
M191.951950,80.658287 
	C189.407196,79.130257 186.814407,77.260513 184.221603,75.390762 
	C184.663269,74.882973 185.104935,74.375183 185.546600,73.867386 
	C187.665710,76.017113 189.784805,78.166840 191.951950,80.658287 
z"/>
<path fill="#DBDBDB" opacity="1.000000" stroke="none" 
	d="
M159.029984,26.605629 
	C158.777206,27.436296 158.512482,27.950907 158.127731,28.727219 
	C156.997269,27.245884 155.986847,25.502850 154.996948,23.369886 
	C155.017471,22.979959 155.108215,22.899101 155.108215,22.899101 
	C156.201736,23.505188 157.295258,24.111271 158.665695,24.871397 
	C158.967758,25.446815 158.992905,25.868195 159.029984,26.605629 
z"/>
<path fill="#DBDBDB" opacity="1.000000" stroke="none" 
	d="
M172.775238,86.584602 
	C173.616135,87.818733 174.197250,88.888344 174.778366,89.957962 
	C174.269165,90.094467 173.759964,90.230965 173.250763,90.367470 
	C173.005661,89.051682 172.760559,87.735886 172.775238,86.584602 
z"/>
<path fill="#DBDBDB" opacity="1.000000" stroke="none" 
	d="
M172.021103,99.972542 
	C172.495682,100.277985 172.970261,100.583427 173.444839,100.888878 
	C173.280106,101.077469 173.115356,101.266052 172.950623,101.454636 
	C172.646759,101.157043 172.342896,100.859444 172.016846,100.282608 
	C171.994644,100.003365 172.021103,99.972542 172.021103,99.972542 
z"/>
<path fill="#DBDBDB" opacity="1.000000" stroke="none" 
	d="
M177.010361,93.989433 
	C176.536880,93.707191 176.063400,93.424942 175.589920,93.142700 
	C175.746078,92.952782 175.902237,92.762856 176.058395,92.572937 
	C176.339462,92.876640 176.620529,93.180351 176.951141,93.741699 
	C177.000687,93.999336 177.010361,93.989433 177.010361,93.989433 
z"/>
<path fill="#DBDBDB" opacity="1.000000" stroke="none" 
	d="
M153.103271,18.922272 
	C153.006744,19.190041 152.783844,19.331228 152.560928,19.472412 
	C152.699585,19.246836 152.838242,19.021263 153.103271,18.922272 
z"/>
<path fill="#DBDBDB" opacity="1.000000" stroke="none" 
	d="
M154.970520,23.018543 
	C154.823730,22.627590 154.723892,22.198051 154.624039,21.768513 
	C154.767365,22.001406 154.910690,22.234295 155.081116,22.683144 
	C155.108215,22.899101 155.017471,22.979959 154.970520,23.018543 
z"/>
<path fill="#DBDBDB" opacity="1.000000" stroke="none" 
	d="
M198.991699,77.005180 
	C198.670395,76.536858 198.359177,76.061348 198.023987,75.292923 
	C198.000000,75.000000 197.998566,75.001938 197.998566,75.001938 
	C198.316193,75.468018 198.633820,75.934097 198.985626,76.689972 
	C199.019791,76.979767 199.001770,76.997993 198.991699,77.005180 
z"/>
<path fill="#DBDBDB" opacity="1.000000" stroke="none" 
	d="
M176.995880,94.002579 
	C177.204773,94.234062 177.436737,94.449120 177.618332,94.700554 
	C177.659576,94.757652 177.526184,94.940857 177.473145,95.066010 
	C177.321960,94.849991 177.170761,94.633972 177.014969,94.203690 
	C177.010361,93.989433 177.000687,93.999336 176.995880,94.002579 
z"/>
<path fill="#DBDBDB" opacity="1.000000" stroke="none" 
	d="
M197.558792,86.184509 
	C197.526321,86.203445 197.591263,86.165588 197.558792,86.184509 
z"/>
<path fill="#DBDBDB" opacity="1.000000" stroke="none" 
	d="
M192.046112,81.115013 
	C192.000000,81.000000 192.403641,81.239609 192.403641,81.239609 
	C192.403641,81.239609 192.092239,81.230026 192.046112,81.115013 
z"/>
<path fill="#DBDBDB" opacity="1.000000" stroke="none" 
	d="
M125.949265,46.039867 
	C125.605354,45.951500 125.348656,45.761528 125.067635,45.250206 
	C124.991913,44.998318 125.076012,44.906906 125.076012,44.906906 
	C125.379234,45.041168 125.623589,45.245747 125.929947,45.729050 
	C126.050835,45.937454 125.985069,46.007721 125.949265,46.039867 
z"/>
<path fill="#DBDBDB" opacity="1.000000" stroke="none" 
	d="
M169.525360,98.531647 
	C169.482986,98.554131 169.567749,98.509171 169.525360,98.531647 
z"/>
<path fill="#DBDBDB" opacity="1.000000" stroke="none" 
	d="
M124.946335,45.040497 
	C124.813828,44.921040 124.726898,44.759396 124.639969,44.597755 
	C124.733749,44.626621 124.827545,44.655487 124.998672,44.795631 
	C125.076012,44.906906 124.991913,44.998318 124.946335,45.040497 
z"/>
<path fill="#DBDBDB" opacity="1.000000" stroke="none" 
	d="
M198.000916,74.999184 
	C198.001831,74.998367 197.586014,74.754845 197.586014,74.754845 
	C197.586014,74.754845 197.904877,74.765533 197.951721,74.883736 
	C197.998566,75.001938 198.000000,75.000000 198.000916,74.999184 
z"/>
<path fill="#DBDBDB" opacity="1.000000" stroke="none" 
	d="
M181.544708,54.537804 
	C181.485489,54.572510 181.603943,54.503094 181.544708,54.537804 
z"/>
<path fill="#DBDBDB" opacity="1.000000" stroke="none" 
	d="
M171.978912,100.016495 
	C171.859619,99.898277 171.756073,99.766937 171.652512,99.635590 
	C171.735092,99.670860 171.817688,99.706123 171.960693,99.856964 
	C172.021103,99.972542 171.994644,100.003365 171.978912,100.016495 
z"/>
<path fill="#DBDBDB" opacity="1.000000" stroke="none" 
	d="
M122.496414,43.467133 
	C122.532181,43.450035 122.460648,43.484226 122.496414,43.467133 
z"/>
<path fill="#DBDBDB" opacity="1.000000" stroke="none" 
	d="
M196.471771,72.469223 
	C196.516693,72.443787 196.426834,72.494667 196.471771,72.469223 
z"/>
<path fill="#DBDBDB" opacity="1.000000" stroke="none" 
	d="
M139.974365,64.016510 
	C139.944092,64.044731 139.582733,63.725052 139.582733,63.725052 
	C139.582733,63.725052 139.934509,63.708218 139.996948,63.817211 
	C140.059402,63.926205 140.004639,63.988293 139.974365,64.016510 
z"/>
<path fill="#272727" opacity="1.000000" stroke="none" 
	d="
M186.890457,215.740387 
	C186.077927,220.341248 183.683838,223.583267 179.154068,223.703598 
	C175.021820,223.813370 172.608582,221.027969 171.889587,216.566803 
	C172.597778,212.589417 174.039520,209.244064 178.225311,209.154510 
	C182.350098,209.066299 185.318512,211.396072 186.890457,215.740387 
z"/>
<path fill="#121820" opacity="1.000000" stroke="none" 
	d="
M453.183441,292.897552 
	C453.864594,294.617889 454.402588,295.972961 455.161591,297.884735 
	C448.545471,297.884735 442.395874,297.884735 435.120117,297.884735 
	C438.489746,290.071075 441.696014,282.636261 445.283569,274.317261 
	C448.147400,281.042358 450.593842,286.787354 453.183441,292.897552 
z"/>
<path fill="#121820" opacity="1.000000" stroke="none" 
	d="
M670.152344,298.313416 
	C667.580933,298.312469 665.486938,298.312469 663.260742,298.312469 
	C665.139160,290.504547 670.362366,286.133789 677.450928,285.906982 
	C684.943420,285.667267 690.478271,289.843201 692.997803,298.314362 
	C685.390015,298.314362 678.009888,298.314362 670.152344,298.313416 
z"/>
<path fill="#121820" opacity="1.000000" stroke="none" 
	d="
M563.206177,285.938385 
	C572.761169,286.402954 578.159424,290.850708 579.712402,299.155396 
	C580.996643,306.022644 577.277771,313.498566 571.080322,316.004791 
	C565.079529,318.431488 559.208252,317.928131 554.319092,313.536041 
	C549.669617,309.359283 547.972107,303.928833 549.602661,297.725128 
	C551.392334,290.915985 555.792053,286.973541 563.206177,285.938385 
z"/>
<path fill="#DBDBDB" opacity="1.000000" stroke="none" 
	d="
M161.991302,34.909966 
	C162.298096,33.831287 162.604889,32.752609 162.954834,31.339153 
	C163.937943,33.210457 169.476486,34.315643 164.316879,37.948524 
	C163.984406,37.994709 164.003250,38.001347 163.964203,37.689735 
	C163.280518,36.555401 162.635910,35.732685 161.991302,34.909966 
z"/>
<path fill="#F5F5F5" opacity="1.000000" stroke="none" 
	d="
M161.776733,35.124535 
	C162.635910,35.732685 163.280518,36.555401 163.967621,37.698410 
	C163.194107,37.125500 162.378143,36.232300 161.776733,35.124535 
z"/>
<path fill="#FAFAFA" opacity="1.000000" stroke="none" 
	d="
M137.997635,55.710144 
	C137.705841,55.511711 137.371460,55.008190 137.009064,54.188004 
	C137.305725,54.382576 137.630371,54.893814 137.997635,55.710144 
z"/>
</svg>