<?xml version="1.0" encoding="iso-8859-1"?>
<!-- Generator: Adobe Illustrator 19.0.0, SVG Export Plug-In . SVG Version: 6.00 Build 0)  -->
<svg version="1.1" id="Layer_1" xmlns="http://www.w3.org/2000/svg" xmlns:xlink="http://www.w3.org/1999/xlink" x="0px" y="0px"
	 viewBox="0 0 511.999 511.999" style="enable-background:new 0 0 511.999 511.999;" xml:space="preserve" fill="#fff">
<g>
	<g>
		<path d="M370.07,0H141.928c-24.247,0-43.971,19.725-43.971,43.971v424.057c0,24.245,19.725,43.971,43.971,43.971h228.144
			c24.245,0,43.971-19.725,43.971-43.971V43.971C414.041,19.725,394.317,0,370.07,0z M380.65,468.029
			c0,5.833-4.745,10.579-10.579,10.579H141.928c-5.833,0-10.579-4.746-10.579-10.579v-57.376H380.65V468.029z M380.65,377.262
			H131.348V124.555H380.65V377.262z M380.651,91.163H131.348V43.971c0-5.833,4.745-10.58,10.579-10.58h228.144
			c5.833,0,10.579,4.746,10.579,10.58V91.163z"/>
	</g>
</g>
<g>
	<g>
		<rect x="208.884" y="45.581" width="94.23" height="33.391"/>
	</g>
</g>
<g>
	<g>
		<circle cx="255.999" cy="443.96" r="20.191"/>
	</g>
</g>
<g>
</g>
<g>
</g>
<g>
</g>
<g>
</g>
<g>
</g>
<g>
</g>
<g>
</g>
<g>
</g>
<g>
</g>
<g>
</g>
<g>
</g>
<g>
</g>
<g>
</g>
<g>
</g>
<g>
</g>
</svg>
